<svg xmlns="http://www.w3.org/2000/svg" xmlns:xlink="http://www.w3.org/1999/xlink" viewBox="0 0 95 118.75" version="1.1" x="0px" y="0px"><title>feathers</title><desc>Created with Sketch.</desc><g stroke="none" stroke-width="1" fill="none" fill-rule="evenodd"><g fill-rule="nonzero" fill="#000000"><path d="M34.1520202,82.289 C34.1520202,82.289 48.5459596,83.904 68.1217172,70.0245 C60.1378788,69.6825 52.8929293,68.628 52.3459596,67.3075 C55.7429293,68.951 62.9015152,68.989 70.0792929,68.609 C74.2541874,65.460383 78.1895472,62.0120841 81.8535354,58.292 C102.878283,37.012 92.2843434,0.912 92.2843434,0.912 C88.0438412,8.63912098 82.2543999,15.4277553 75.2707071,20.862 C72.3254975,23.1009343 69.2318475,25.1416854 66.0106061,26.9705 C63.8550645,30.3505584 62.2368613,34.038411 61.2126263,37.905 C61.8848512,34.5329536 62.8677477,31.228976 64.1489899,28.0345 C37.7025253,42.541 6.43888889,46.379 19.470202,76.399 C15.8141414,68.571 14.8161616,68.533 11.9757576,64.049 C11.9757576,64.049 12.9353535,68.685 13.5111111,71.497 C14.4707071,75.81 18.6449495,78.641 18.6449495,78.641 L0.0383838384,92.3115 L1.67929293,94.544 L20.0939394,80.769 C20.0939394,80.769 25.3141414,86.545 39.1419192,86.8205 C35.8699161,84.5556867 32.3829236,82.6116803 28.730303,81.016 L34.1520202,82.289 Z M56.3378788,47.747 L80.4333333,31.2075 L78.6676768,32.775 C76.0959596,34.8175 74.4166667,35.9955 71.6242424,37.9715 C65.55,42.256 59.1494949,46.284 53.919697,50.673 C39.1707071,63.1275 23.2126263,76.2375 23.2126263,76.2375 C23.2126263,76.2375 45.6191919,55.9075 56.3378788,47.747 Z"/></g></g><text x="0" y="110" fill="#000000" font-size="5px" font-weight="bold" font-family="'Helvetica Neue', Helvetica, Arial-Unicode, Arial, Sans-serif">Created by Carly Sanker</text><text x="0" y="115" fill="#000000" font-size="5px" font-weight="bold" font-family="'Helvetica Neue', Helvetica, Arial-Unicode, Arial, Sans-serif">from the Noun Project</text></svg>